<svg width="18" height="18" viewBox="0 0 18 18" fill="none" xmlns="http://www.w3.org/2000/svg">
<path d="M0.869126 5.71166L8.57496 1.09166C8.70447 1.01395 8.85267 0.9729 9.00371 0.9729C9.15475 0.9729 9.30295 1.01395 9.43246 1.09166L17.1308 5.71249C17.1926 5.7495 17.2437 5.80189 17.2792 5.86455C17.3147 5.9272 17.3333 5.99798 17.3333 6.06999V16.6667C17.3333 16.8877 17.2455 17.0996 17.0892 17.2559C16.9329 17.4122 16.721 17.5 16.5 17.5H1.49996C1.27895 17.5 1.06698 17.4122 0.910704 17.2559C0.754423 17.0996 0.666626 16.8877 0.666626 16.6667V6.06916C0.666611 5.99715 0.685257 5.92637 0.720747 5.86371C0.756237 5.80106 0.807358 5.74867 0.869126 5.71166ZM2.33329 6.77749V15.8333H15.6666V6.77666L9.00329 2.77666L2.33329 6.77666V6.77749ZM9.04996 11.415L13.4633 7.69583L14.5366 8.97083L9.06163 13.585L3.46996 8.97666L4.52996 7.68999L9.04996 11.415Z" fill="#03053D"/>
</svg>
