<svg width="20" height="20" viewBox="0 0 20 20" fill="none" xmlns="http://www.w3.org/2000/svg">
<g clip-path="url(#clip0_9_2)">
<path d="M14.1666 11.6667H10.5491C10.156 12.7787 9.38235 13.7159 8.365 14.3127C7.34764 14.9095 6.15207 15.1275 4.98957 14.928C3.82708 14.7285 2.77252 14.1246 2.01229 13.2228C1.25205 12.321 0.835083 11.1795 0.835083 10C0.835083 8.82053 1.25205 7.67902 2.01229 6.77724C2.77252 5.87546 3.82708 5.27147 4.98957 5.07202C6.15207 4.87257 7.34764 5.0905 8.365 5.68729C9.38235 6.28409 10.156 7.22132 10.5491 8.33334H19.1666V11.6667H17.5V15H14.1666V11.6667ZM5.8333 11.6667C6.27532 11.6667 6.69925 11.4911 7.01181 11.1785C7.32437 10.866 7.49996 10.442 7.49996 10C7.49996 9.55798 7.32437 9.13406 7.01181 8.8215C6.69925 8.50894 6.27532 8.33334 5.8333 8.33334C5.39127 8.33334 4.96734 8.50894 4.65478 8.8215C4.34222 9.13406 4.16663 9.55798 4.16663 10C4.16663 10.442 4.34222 10.866 4.65478 11.1785C4.96734 11.4911 5.39127 11.6667 5.8333 11.6667Z" fill="#4F4F4F"/>
</g>
<defs>
<clipPath id="clip0_9_2">
<rect width="20" height="20" fill="white"/>
</clipPath>
</defs>
</svg>
